<svg xmlns="http://www.w3.org/2000/svg" viewBox="138 91 2235 2158">
<defs><linearGradient id="wing" x1="0" y1="0" x2="0" y2="1"><stop offset="0" stop-color="#2F6BFF"/><stop offset="0.42" stop-color="#2F6BFF"/><stop offset="0.52" stop-color="#1786D4"/><stop offset="0.70" stop-color="#1786D4"/><stop offset="0.80" stop-color="#FF7A1A"/><stop offset="1" stop-color="#FF7A1A"/></linearGradient></defs>
<rect x="138" y="91" width="2235" height="2158" fill="#081833"/>
<path fill-rule="nonzero" fill="url(#wing)" d="M 734.0 1284.8 C 734.0 1272.5 734.4 1262.0 734.8 1261.4 C 735.2 1260.8 739.5 1258.2 744.5 1255.5 C 755.3 1249.7 761.7 1246.3 769.0 1242.3 C 772.0 1240.6 778.4 1237.2 783.2 1234.6 C 788.0 1232.1 794.3 1228.6 797.1 1226.9 C 799.9 1225.3 806.6 1221.6 811.9 1218.8 C 817.2 1216.0 822.0 1213.4 822.5 1213.0 C 823.7 1212.0 829.9 1208.6 836.2 1205.3 C 841.4 1202.6 841.8 1201.6 839.5 1198.3 C 837.0 1194.7 824.5 1169.8 821.6 1162.5 C 806.4 1124.7 800.1 1086.7 802.9 1048.9 C 804.0 1032.6 804.6 1028.0 807.1 1014.5 C 812.3 986.7 825.6 951.6 841.7 923.2 C 844.6 918.0 847.0 913.5 847.0 913.0 C 847.0 912.6 841.5 907.4 834.8 901.4 C 809.5 879.0 776.9 845.7 753.1 818.0 C 740.6 803.4 712.5 765.3 700.8 747.0 C 659.5 682.6 637.0 626.8 618.6 543.4 C 612.5 515.6 608.1 485.7 604.8 449.5 C 603.2 430.9 603.2 369.8 604.8 350.5 C 607.6 317.7 611.7 290.5 618.0 261.0 C 621.8 243.5 629.0 214.6 630.5 210.8 C 635.4 198.6 593.6 248.7 572.3 280.5 C 550.9 312.6 526.9 360.5 516.8 391.5 C 506.8 422.2 500.8 447.5 497.1 474.5 C 494.5 493.4 494.0 498.5 493.0 517.2 C 490.6 559.4 497.3 609.5 510.0 644.0 C 511.7 648.7 513.8 654.5 514.7 657.0 C 517.2 664.6 533.4 696.9 541.0 709.5 C 591.1 792.8 656.9 866.6 742.6 935.7 C 757.3 947.6 756.2 945.5 752.8 955.2 C 751.2 959.8 749.6 963.8 749.2 964.2 C 747.6 965.8 691.5 924.1 665.2 901.8 C 630.4 872.3 590.9 833.9 564.8 803.9 C 519.9 752.5 479.7 696.1 449.2 642.0 C 440.9 627.3 434.8 615.9 429.5 605.1 C 426.2 598.5 423.2 593.0 422.8 593.0 C 421.2 593.0 419.8 606.1 417.5 643.0 C 414.6 689.4 416.1 732.2 421.9 764.5 C 425.5 785.0 432.2 808.7 438.1 821.7 C 439.1 824.1 440.0 826.3 440.0 826.6 C 440.0 828.6 449.4 846.0 455.1 854.5 C 464.1 868.0 472.9 878.0 489.0 892.9 C 546.3 945.8 624.7 998.1 711.2 1041.0 C 722.3 1046.6 731.7 1051.5 732.0 1051.9 C 732.3 1052.4 732.4 1057.1 732.2 1062.4 C 731.9 1069.4 731.5 1072.0 730.6 1072.0 C 728.6 1072.0 695.5 1058.2 676.0 1049.2 C 584.0 1006.9 510.3 963.1 442.5 910.2 C 435.9 905.1 430.4 901.4 430.2 902.0 C 429.0 905.6 437.5 940.4 445.5 964.5 C 463.4 1018.2 491.9 1061.7 524.6 1084.9 C 559.2 1109.5 647.4 1139.7 733.9 1156.6 L 738.3 1157.5 L 741.2 1168.3 C 742.8 1174.3 743.9 1179.4 743.6 1179.7 C 743.0 1180.3 724.2 1177.8 708.0 1175.0 C 648.9 1164.5 598.1 1151.7 546.5 1134.0 C 520.1 1124.9 522.0 1125.5 522.0 1127.3 C 522.0 1129.5 530.9 1147.1 537.9 1158.9 C 554.1 1186.0 565.1 1200.2 586.0 1221.0 C 606.0 1241.1 624.0 1254.9 648.3 1268.9 C 660.8 1276.1 686.9 1289.0 697.0 1293.0 C 701.7 1294.8 706.0 1296.6 706.5 1297.0 C 707.0 1297.4 710.2 1298.7 713.5 1299.9 C 716.8 1301.0 722.4 1303.1 726.0 1304.4 C 729.6 1305.8 732.8 1306.9 733.2 1306.9 C 733.7 1307.0 734.0 1297.0 734.0 1284.8 Z M 1787.2 1302.6 C 1808.1 1295.0 1813.0 1293.1 1819.1 1290.3 C 1822.6 1288.6 1828.4 1286.0 1832.0 1284.5 C 1838.4 1281.6 1840.4 1280.6 1852.5 1274.0 C 1882.1 1257.8 1905.9 1240.1 1927.6 1217.9 C 1941.5 1203.7 1950.6 1192.4 1961.4 1176.2 C 1974.7 1156.2 1990.2 1127.9 1988.7 1126.4 C 1988.4 1126.0 1986.8 1126.2 1985.3 1126.8 C 1969.2 1133.1 1928.4 1146.2 1906.5 1152.0 C 1892.5 1155.8 1879.6 1159.1 1875.5 1159.9 C 1873.3 1160.4 1867.0 1161.8 1861.5 1163.0 C 1835.9 1168.7 1815.4 1172.7 1793.5 1176.4 C 1770.4 1180.3 1766.4 1180.8 1765.7 1180.1 C 1765.3 1179.7 1765.6 1177.6 1766.3 1175.4 C 1767.0 1173.3 1768.3 1168.8 1769.0 1165.5 C 1770.7 1158.0 1771.2 1157.4 1775.8 1156.6 C 1792.6 1153.6 1839.3 1142.5 1862.5 1135.9 C 1902.8 1124.4 1955.9 1103.6 1976.3 1091.4 C 2003.0 1075.3 2027.1 1047.5 2045.3 1011.8 C 2049.3 1003.9 2053.3 995.7 2054.2 993.5 C 2058.6 983.2 2059.5 981.0 2062.2 973.5 C 2066.7 961.1 2067.6 958.5 2071.8 943.5 C 2076.0 928.7 2077.3 923.6 2078.9 915.5 C 2079.5 912.8 2080.4 908.6 2080.9 906.2 C 2081.4 903.9 2081.5 901.8 2081.0 901.5 C 2080.6 901.3 2076.5 904.0 2071.9 907.6 C 2031.3 938.9 2009.1 954.2 1965.9 980.3 C 1939.4 996.4 1885.8 1024.7 1850.5 1041.3 C 1825.3 1053.2 1781.3 1072.0 1778.8 1072.0 C 1778.4 1072.0 1778.0 1067.4 1778.0 1061.8 L 1778.0 1051.5 L 1801.3 1039.8 C 1852.4 1013.9 1911.7 978.7 1946.9 953.1 C 1992.8 919.8 2030.4 887.7 2046.0 868.5 C 2068.3 841.0 2083.0 805.3 2089.9 761.5 C 2091.0 754.4 2092.4 745.4 2093.0 741.5 C 2094.7 730.8 2095.4 669.5 2094.1 647.5 C 2093.1 630.2 2092.5 623.5 2090.4 601.2 C 2089.4 590.6 2089.3 590.7 2079.0 610.5 C 2075.0 618.2 2071.4 625.0 2071.0 625.5 C 2070.6 626.0 2068.6 629.6 2066.5 633.5 C 2058.2 648.9 2056.4 652.1 2047.2 667.0 C 2017.7 715.1 1982.9 762.7 1949.3 801.0 C 1916.2 838.8 1863.4 888.5 1824.1 918.8 C 1794.2 942.0 1761.0 965.5 1760.0 964.3 C 1759.4 963.6 1754.0 947.8 1754.0 946.7 C 1754.0 946.5 1759.3 942.1 1765.8 936.9 C 1831.0 884.8 1888.3 826.1 1932.2 766.4 C 1986.2 692.9 2007.3 645.7 2016.6 578.0 C 2017.9 568.6 2018.4 557.9 2018.4 534.5 C 2018.5 498.8 2017.4 486.7 2011.4 454.0 C 1995.9 370.7 1957.1 293.9 1893.0 219.6 C 1884.4 209.7 1880.9 206.7 1882.4 210.7 C 1884.7 216.5 1895.4 261.3 1897.9 275.5 C 1905.5 318.2 1908.0 343.9 1908.7 388.0 C 1909.3 427.7 1908.3 449.4 1904.4 480.0 C 1890.4 590.9 1859.6 674.8 1801.1 761.2 C 1781.8 789.6 1769.9 805.1 1747.0 831.3 C 1735.7 844.2 1686.9 892.3 1674.7 902.5 C 1668.8 907.4 1664.0 912.1 1664.0 912.9 C 1664.0 913.7 1665.8 917.5 1668.1 921.4 C 1678.3 938.9 1689.8 965.5 1695.8 985.0 C 1710.3 1032.2 1711.3 1087.0 1698.5 1131.5 C 1692.2 1153.3 1681.7 1177.8 1670.8 1196.3 C 1669.2 1199.0 1668.2 1201.5 1668.5 1201.9 C 1668.9 1202.7 1686.6 1212.9 1700.5 1220.5 C 1703.2 1222.0 1708.4 1225.0 1712.0 1227.0 C 1715.6 1229.1 1722.1 1232.7 1726.5 1235.0 C 1730.9 1237.3 1736.8 1240.5 1739.5 1242.0 C 1742.2 1243.5 1749.9 1247.6 1756.5 1251.0 C 1763.1 1254.5 1770.0 1258.2 1771.8 1259.2 L 1775.0 1261.2 L 1775.0 1283.6 C 1775.0 1302.6 1775.2 1306.0 1776.5 1306.0 C 1777.3 1306.0 1782.1 1304.5 1787.2 1302.6 Z"/>
<path fill-rule="nonzero" fill="#F5F7FA" d="M 1029.8 1612.5 C 1030.8 1612.1 1031.0 1596.6 1030.6 1534.8 C 1030.4 1492.3 1030.3 1456.4 1030.3 1455.0 C 1030.4 1453.6 1030.4 1421.5 1030.4 1383.5 L 1030.5 1314.5 L 902.1 1314.2 C 825.8 1314.1 773.2 1314.4 772.7 1314.9 C 771.7 1315.9 771.1 1609.6 772.1 1612.0 C 772.7 1613.4 786.1 1613.6 900.6 1613.3 C 971.0 1613.1 1029.1 1612.8 1029.8 1612.5 Z M 1736.5 1464.0 L 1736.5 1314.5 L 1607.6 1314.2 C 1507.7 1314.0 1478.5 1314.3 1477.9 1315.2 C 1477.0 1316.6 1476.7 1448.1 1477.6 1450.4 C 1478.2 1451.9 1489.6 1452.0 1604.1 1452.0 L 1730.0 1452.0 L 1730.0 1456.0 L 1730.0 1460.0 L 1604.1 1460.0 C 1504.3 1460.0 1478.1 1460.3 1477.7 1461.2 C 1476.9 1463.4 1477.2 1611.5 1478.0 1612.5 C 1478.6 1613.2 1523.0 1613.5 1607.7 1613.5 L 1736.5 1613.5 L 1736.5 1464.0 Z M 1053.1 1601.8 C 1056.7 1596.7 1066.2 1583.2 1074.3 1571.8 L 1089.0 1551.2 L 1089.2 1462.6 L 1089.5 1374.0 L 1253.9 1374.0 C 1344.3 1374.0 1418.5 1374.2 1418.7 1374.4 C 1418.9 1374.6 1419.0 1414.3 1419.0 1462.7 L 1419.0 1550.6 L 1422.8 1556.1 C 1424.9 1559.1 1433.2 1570.7 1441.1 1582.0 C 1449.1 1593.3 1456.9 1604.4 1458.5 1606.8 C 1460.0 1609.1 1461.7 1611.0 1462.1 1611.0 C 1462.6 1611.0 1462.9 1546.4 1462.8 1462.8 L 1462.5 1314.5 L 1254.0 1314.5 L 1045.5 1314.5 L 1045.2 1462.8 C 1045.1 1544.3 1045.3 1611.0 1045.8 1611.0 C 1046.2 1611.0 1049.5 1606.8 1053.1 1601.8 Z M 859.6 1524.4 C 859.3 1523.6 859.0 1519.5 859.0 1515.4 L 859.0 1508.0 L 901.0 1508.0 L 943.1 1508.0 L 942.8 1516.8 L 942.5 1525.5 L 901.4 1525.8 C 864.5 1526.0 860.2 1525.9 859.6 1524.4 Z M 1565.7 1525.3 C 1565.4 1524.8 1565.1 1520.9 1564.9 1516.5 L 1564.5 1508.5 L 1606.5 1508.5 L 1648.5 1508.5 L 1648.5 1517.0 L 1648.5 1525.5 L 1607.3 1525.8 C 1584.7 1525.9 1565.9 1525.7 1565.7 1525.3 Z M 778.4 1458.6 C 778.1 1457.8 778.0 1456.1 778.2 1454.8 L 778.5 1452.5 L 901.4 1452.5 C 1017.3 1452.5 1024.3 1452.6 1025.4 1454.2 C 1026.2 1455.5 1026.2 1456.5 1025.4 1457.8 C 1024.3 1459.4 1017.2 1459.5 901.6 1459.8 C 795.9 1460.0 778.9 1459.8 778.4 1458.6 Z M 859.7 1386.3 C 859.3 1386.0 859.0 1382.1 859.0 1377.8 L 859.0 1370.0 L 900.8 1370.2 L 942.5 1370.5 L 942.5 1378.5 L 942.5 1386.5 L 901.4 1386.8 C 878.8 1386.9 860.1 1386.7 859.7 1386.3 Z M 1565.0 1378.5 L 1565.0 1370.0 L 1606.8 1370.2 L 1648.5 1370.5 L 1648.5 1378.5 L 1648.5 1386.5 L 1606.8 1386.8 L 1565.0 1387.0 L 1565.0 1378.5 Z M 1751.8 1288.1 C 1752.0 1283.5 1751.7 1279.3 1751.3 1278.9 C 1750.8 1278.4 1740.6 1274.7 1728.5 1270.6 C 1695.5 1259.4 1671.9 1251.0 1642.2 1240.1 C 1637.7 1238.4 1630.3 1235.6 1625.8 1234.0 L 1617.7 1231.0 L 1254.4 1231.0 C 989.4 1231.0 890.4 1231.3 888.3 1232.1 C 886.8 1232.7 881.9 1234.5 877.5 1236.0 C 873.1 1237.6 865.7 1240.3 861.0 1242.0 C 856.3 1243.8 850.0 1246.1 847.0 1247.2 C 838.7 1250.3 810.5 1260.1 781.8 1269.7 L 756.0 1278.4 L 756.0 1287.7 L 756.0 1297.0 L 1253.8 1296.8 L 1751.5 1296.5 L 1751.8 1288.1 Z M 658.8 2126.2 C 664.3 2124.1 674.0 2117.3 674.0 2115.6 C 674.0 2114.2 666.8 2107.0 665.5 2107.0 C 664.8 2107.0 663.5 2107.9 662.4 2109.1 C 661.4 2110.3 658.5 2112.4 656.0 2113.8 C 649.9 2117.4 637.7 2117.6 631.5 2114.3 C 621.7 2109.0 616.6 2099.9 616.6 2087.5 C 616.5 2077.3 619.2 2070.8 626.1 2064.6 C 631.9 2059.4 637.6 2057.6 646.2 2058.2 C 653.0 2058.6 657.8 2060.5 662.4 2064.5 L 665.3 2067.0 L 669.6 2063.2 C 671.9 2061.2 673.9 2059.1 673.9 2058.5 C 674.1 2056.9 667.5 2052.1 661.2 2049.2 C 656.0 2046.7 654.4 2046.5 643.5 2046.5 C 632.4 2046.5 631.1 2046.7 625.9 2049.3 C 610.4 2056.9 602.5 2070.2 602.6 2088.5 C 602.8 2107.3 612.7 2121.5 629.3 2127.0 C 637.3 2129.6 650.9 2129.2 658.8 2126.2 Z M 794.0 2128.0 C 818.4 2123.4 832.3 2098.0 824.3 2072.8 C 821.0 2062.3 811.0 2052.1 800.0 2047.9 C 795.4 2046.2 792.8 2045.9 784.0 2046.2 C 774.8 2046.5 772.7 2046.9 767.5 2049.5 C 736.8 2064.4 736.4 2110.8 766.8 2124.8 C 775.9 2128.9 784.0 2129.9 794.0 2128.0 Z M 1099.3 2126.0 C 1105.9 2122.9 1111.6 2116.2 1112.9 2109.8 C 1114.7 2101.4 1112.9 2095.1 1106.8 2089.3 C 1102.9 2085.5 1098.8 2083.7 1085.9 2080.0 C 1080.6 2078.5 1075.4 2076.8 1074.4 2076.2 C 1068.3 2072.9 1066.8 2065.8 1071.2 2061.3 C 1077.3 2055.2 1093.0 2056.6 1101.4 2063.9 C 1103.1 2065.4 1103.4 2065.2 1107.1 2061.0 C 1109.2 2058.5 1111.0 2056.0 1111.0 2055.3 C 1111.0 2054.6 1107.5 2052.4 1103.3 2050.3 C 1096.2 2046.8 1094.9 2046.5 1085.3 2046.2 C 1077.7 2045.9 1073.8 2046.2 1070.1 2047.5 C 1064.2 2049.4 1057.6 2055.6 1055.9 2060.7 C 1054.1 2066.2 1055.1 2076.1 1057.9 2080.2 C 1061.9 2086.1 1065.5 2087.8 1086.7 2094.1 C 1095.3 2096.7 1099.4 2100.3 1099.4 2105.4 C 1099.4 2109.8 1097.0 2113.3 1092.4 2115.5 C 1085.1 2118.9 1069.7 2116.0 1063.2 2110.0 C 1062.0 2108.9 1060.4 2108.0 1059.6 2108.0 C 1057.9 2108.0 1052.0 2114.5 1052.0 2116.5 C 1052.0 2119.4 1064.3 2125.9 1074.5 2128.4 C 1075.6 2128.7 1080.5 2128.8 1085.5 2128.6 C 1092.3 2128.4 1095.7 2127.7 1099.3 2126.0 Z M 1246.5 2125.4 C 1254.2 2121.6 1259.2 2115.7 1261.9 2107.3 C 1263.9 2100.9 1264.0 2098.8 1263.8 2073.5 L 1263.5 2046.5 L 1258.2 2046.2 C 1249.5 2045.7 1249.9 2044.5 1250.1 2075.4 C 1250.3 2098.5 1250.1 2102.9 1248.7 2105.5 C 1245.3 2112.0 1240.5 2115.4 1232.9 2116.5 C 1223.8 2117.9 1215.2 2113.6 1211.1 2105.5 C 1208.5 2100.6 1208.5 2100.1 1208.0 2073.5 L 1207.5 2046.5 L 1201.5 2046.5 L 1195.5 2046.5 L 1195.5 2076.0 C 1195.6 2103.7 1195.7 2105.8 1197.6 2110.0 C 1203.8 2123.3 1215.1 2129.4 1232.2 2128.6 C 1239.0 2128.2 1242.0 2127.6 1246.5 2125.4 Z M 1889.9 2127.4 C 1893.5 2126.5 1899.5 2124.2 1903.2 2122.4 L 1910.0 2119.0 L 1910.0 2101.0 L 1910.0 2083.0 L 1893.2 2083.2 L 1876.5 2083.5 L 1876.5 2089.0 L 1876.5 2094.5 L 1886.5 2095.0 L 1896.5 2095.5 L 1896.8 2102.9 C 1897.2 2111.7 1896.3 2113.0 1888.3 2115.5 C 1863.6 2123.3 1842.8 2100.2 1852.1 2075.4 C 1858.4 2058.5 1879.0 2052.6 1894.7 2063.2 C 1897.0 2064.7 1899.2 2066.0 1899.6 2066.0 C 1900.8 2066.0 1908.0 2058.7 1908.0 2057.5 C 1908.0 2056.2 1899.7 2050.6 1894.5 2048.4 C 1884.3 2044.2 1868.8 2044.8 1858.5 2049.9 C 1850.4 2053.9 1842.0 2062.8 1838.9 2070.7 C 1836.9 2075.6 1836.5 2078.4 1836.5 2088.0 C 1836.5 2098.9 1836.7 2099.9 1839.7 2106.2 C 1841.4 2109.9 1844.8 2114.9 1847.2 2117.3 C 1851.9 2122.0 1860.9 2126.9 1866.9 2128.1 C 1873.4 2129.3 1883.2 2129.0 1889.9 2127.4 Z M 916.7 2099.1 C 916.8 2083.5 917.1 2070.5 917.4 2070.3 C 917.7 2070.0 921.4 2074.6 925.7 2080.6 C 948.6 2112.0 956.5 2122.8 958.9 2125.3 C 961.2 2127.8 962.0 2128.1 967.0 2127.8 L 972.5 2127.5 L 972.5 2087.0 L 972.5 2046.5 L 967.1 2046.2 C 964.1 2046.0 961.2 2046.4 960.7 2046.9 C 960.0 2047.6 959.7 2057.3 959.8 2074.9 C 960.0 2089.9 959.6 2102.1 959.2 2102.4 C 958.7 2102.7 952.0 2094.5 944.4 2084.2 C 921.1 2052.7 916.8 2047.0 915.9 2046.9 C 915.4 2046.8 912.6 2046.8 909.8 2046.7 L 904.5 2046.6 L 903.9 2055.0 C 903.0 2066.8 903.4 2125.2 904.4 2126.8 C 904.9 2127.7 907.0 2128.0 910.8 2127.8 L 916.5 2127.5 L 916.7 2099.1 Z M 1398.8 2121.8 L 1399.1 2116.0 L 1379.8 2115.8 L 1360.5 2115.5 L 1360.0 2081.0 L 1359.5 2046.5 L 1353.5 2046.5 L 1347.5 2046.5 L 1347.2 2086.0 C 1347.1 2107.7 1347.2 2126.1 1347.5 2126.8 C 1347.8 2127.8 1353.5 2128.0 1373.2 2127.8 L 1398.5 2127.5 L 1398.8 2121.8 Z M 1502.0 2093.5 L 1502.5 2059.5 L 1515.0 2059.0 L 1527.5 2058.5 L 1527.5 2052.5 L 1527.5 2046.5 L 1497.5 2046.3 C 1481.0 2046.2 1466.7 2046.3 1465.7 2046.6 C 1464.2 2047.1 1464.0 2048.1 1464.2 2052.8 L 1464.5 2058.5 L 1476.5 2059.0 L 1488.5 2059.5 L 1488.8 2093.8 L 1489.0 2128.1 L 1495.3 2127.8 L 1501.5 2127.5 L 1502.0 2093.5 Z M 1615.8 2087.2 L 1615.5 2046.5 L 1609.5 2046.5 L 1603.5 2046.5 L 1603.2 2086.0 C 1603.1 2107.7 1603.2 2126.1 1603.5 2126.7 C 1603.8 2127.6 1606.1 2128.0 1610.0 2128.0 L 1616.0 2128.0 L 1615.8 2087.2 Z M 1707.8 2099.2 C 1707.9 2083.7 1708.4 2071.0 1708.8 2071.0 C 1709.2 2071.1 1711.3 2073.6 1713.5 2076.7 C 1715.7 2079.8 1720.9 2086.9 1725.0 2092.5 C 1729.1 2098.1 1735.0 2106.2 1738.0 2110.5 C 1741.0 2114.8 1745.2 2120.5 1747.4 2123.2 L 1751.2 2128.1 L 1757.4 2127.8 L 1763.5 2127.5 L 1763.5 2087.0 L 1763.5 2046.5 L 1757.9 2046.2 C 1753.9 2046.0 1752.0 2046.3 1751.1 2047.4 C 1750.2 2048.5 1750.0 2055.7 1750.2 2075.9 C 1750.4 2093.5 1750.2 2103.0 1749.5 2102.9 C 1749.0 2102.9 1745.6 2098.7 1742.1 2093.7 C 1734.8 2083.3 1723.7 2068.1 1714.0 2055.2 L 1707.5 2046.5 L 1701.9 2046.2 C 1697.9 2046.0 1696.0 2046.3 1695.1 2047.4 C 1694.1 2048.5 1693.9 2057.9 1694.2 2087.2 C 1694.4 2108.3 1694.9 2126.1 1695.3 2126.8 C 1695.9 2127.7 1698.0 2128.0 1701.8 2127.8 L 1707.5 2127.5 L 1707.8 2099.2 Z M 779.5 2116.4 C 768.9 2113.7 761.7 2105.7 759.0 2093.7 C 756.6 2083.2 760.5 2071.3 768.7 2064.0 C 773.6 2059.7 778.6 2058.0 786.3 2058.0 C 803.0 2058.0 815.0 2073.8 812.1 2091.9 C 810.9 2099.0 809.9 2101.5 806.1 2106.7 C 801.7 2112.7 795.3 2116.2 787.7 2116.6 C 784.3 2116.7 780.6 2116.7 779.5 2116.4 Z M 497.8 2089.8 L 498.1 2084.0 L 395.5 2084.0 L 293.0 2084.0 L 293.0 2090.0 L 293.0 2096.0 L 395.2 2095.8 L 497.5 2095.5 L 497.8 2089.8 Z M 2217.0 2090.0 L 2217.0 2084.0 L 2114.5 2084.0 L 2012.0 2084.0 L 2012.0 2090.0 L 2012.0 2096.0 L 2114.5 2096.0 L 2217.0 2096.0 L 2217.0 2090.0 Z M 914.0 1951.1 C 943.1 1943.3 960.1 1922.6 960.0 1894.9 C 959.8 1865.2 945.7 1849.0 910.0 1837.6 C 879.6 1827.8 872.8 1825.0 867.7 1820.2 C 863.4 1816.1 862.0 1812.7 862.0 1806.2 C 862.0 1793.4 872.2 1785.0 888.7 1784.2 C 893.5 1783.9 899.7 1784.3 902.9 1785.0 C 910.7 1786.6 923.6 1793.0 929.2 1797.9 C 931.7 1800.2 934.3 1802.0 934.8 1802.0 C 935.4 1802.0 940.4 1795.8 946.1 1788.3 L 956.4 1774.7 L 952.8 1771.5 C 943.3 1763.3 925.2 1755.1 909.5 1751.9 C 896.1 1749.1 879.5 1749.7 866.8 1753.4 C 838.4 1761.8 822.6 1783.6 824.3 1812.4 C 825.3 1830.6 832.8 1843.1 848.6 1853.2 C 857.1 1858.7 865.4 1862.1 888.0 1869.4 C 908.8 1876.0 915.0 1879.3 919.1 1885.7 C 921.6 1889.7 922.0 1891.4 922.0 1896.9 C 922.0 1904.9 919.4 1910.1 913.5 1914.2 C 905.5 1919.7 888.6 1921.6 875.1 1918.5 C 866.6 1916.5 852.9 1909.3 844.7 1902.5 C 841.1 1899.5 837.7 1897.0 837.3 1897.1 C 835.9 1897.2 816.5 1920.7 816.2 1922.7 C 815.7 1925.8 829.5 1936.7 841.6 1942.9 C 850.0 1947.1 861.7 1950.9 871.8 1952.5 C 883.5 1954.4 904.0 1953.7 914.0 1951.1 Z M 1962.5 1951.1 C 1986.3 1944.9 2002.4 1929.1 2006.5 1907.7 C 2010.0 1889.3 2006.9 1874.9 1996.6 1861.3 C 1988.0 1849.9 1974.8 1842.9 1942.7 1832.6 C 1921.5 1825.7 1913.9 1821.4 1910.8 1814.2 C 1908.1 1808.2 1908.8 1801.5 1912.6 1795.3 C 1920.3 1782.8 1943.0 1780.2 1962.6 1789.5 C 1966.5 1791.4 1972.4 1795.0 1975.8 1797.5 C 1979.1 1800.0 1982.0 1802.0 1982.3 1802.0 C 1982.5 1802.0 1987.3 1795.9 1992.9 1788.4 C 2001.7 1776.7 2003.0 1774.6 2001.8 1773.3 C 1999.1 1769.9 1982.7 1760.0 1975.0 1757.1 C 1963.8 1752.8 1956.1 1751.1 1944.4 1750.3 C 1929.9 1749.4 1914.2 1752.1 1902.3 1757.6 C 1896.8 1760.1 1887.2 1767.9 1883.7 1772.8 C 1875.5 1784.1 1872.0 1794.6 1872.0 1808.5 C 1872.0 1824.6 1876.2 1835.1 1886.5 1845.5 C 1895.8 1854.7 1906.8 1859.9 1938.3 1870.0 C 1953.4 1874.8 1957.6 1876.8 1963.2 1881.8 C 1968.2 1886.3 1970.0 1890.3 1970.0 1896.8 C 1970.0 1910.5 1959.4 1919.0 1941.3 1919.8 C 1924.4 1920.6 1908.5 1915.0 1894.0 1903.1 C 1889.9 1899.8 1886.0 1897.0 1885.3 1897.0 C 1884.7 1897.0 1881.9 1899.8 1879.2 1903.2 C 1876.4 1906.7 1871.9 1912.3 1869.1 1915.7 C 1866.3 1919.1 1864.0 1922.3 1864.0 1922.7 C 1864.0 1923.9 1869.2 1928.6 1876.0 1933.7 C 1888.4 1943.0 1905.1 1949.9 1921.5 1952.6 C 1932.5 1954.4 1952.2 1953.7 1962.5 1951.1 Z M 2212.8 1951.0 C 2232.4 1946.2 2245.5 1936.3 2252.9 1920.5 C 2260.4 1904.7 2259.9 1880.6 2251.7 1867.0 C 2242.9 1852.3 2229.9 1844.2 2199.5 1834.5 C 2166.1 1823.8 2160.0 1819.6 2160.0 1806.7 C 2160.0 1792.7 2170.7 1784.0 2187.9 1784.0 C 2201.2 1784.0 2216.8 1789.7 2227.7 1798.6 C 2230.0 1800.5 2232.2 1802.0 2232.7 1802.0 C 2233.2 1802.0 2235.0 1800.1 2236.6 1797.8 C 2238.3 1795.4 2242.7 1789.3 2246.4 1784.2 C 2250.1 1779.1 2252.8 1774.5 2252.5 1774.0 C 2251.2 1771.9 2239.1 1764.0 2231.5 1760.2 C 2216.2 1752.6 2199.6 1749.3 2182.2 1750.3 C 2163.1 1751.4 2150.1 1756.9 2137.9 1769.0 C 2125.8 1781.0 2121.4 1793.0 2122.3 1811.5 C 2122.8 1823.4 2124.6 1829.1 2130.7 1838.2 C 2139.6 1851.7 2149.2 1857.3 2181.8 1867.9 C 2193.2 1871.6 2204.8 1875.8 2207.6 1877.3 C 2227.5 1887.5 2224.8 1911.5 2202.9 1918.1 C 2197.0 1919.9 2194.1 1920.2 2185.7 1919.8 C 2169.7 1919.0 2157.8 1914.1 2143.3 1902.1 C 2138.2 1897.9 2136.3 1896.9 2135.1 1897.7 C 2134.3 1898.2 2129.1 1904.2 2123.6 1911.0 L 2113.6 1923.3 L 2117.5 1926.8 C 2123.4 1931.9 2134.8 1939.8 2140.5 1942.7 C 2147.3 1946.2 2160.2 1950.6 2167.5 1951.9 C 2170.8 1952.5 2174.6 1953.2 2176.0 1953.4 C 2182.0 1954.5 2204.8 1953.0 2212.8 1951.0 Z M 347.5 1949.9 C 379.7 1946.0 407.6 1927.2 421.7 1900.0 C 430.1 1883.8 432.5 1872.9 432.5 1852.0 C 432.4 1827.8 428.4 1812.6 417.6 1796.5 C 403.3 1775.1 384.8 1762.5 357.5 1755.8 C 349.1 1753.8 345.7 1753.6 304.1 1753.2 C 272.8 1752.9 259.5 1753.1 258.7 1753.9 C 257.9 1754.7 257.6 1782.7 257.8 1852.3 C 257.9 1905.7 258.0 1949.8 258.0 1950.2 C 258.0 1951.4 337.4 1951.1 347.5 1949.9 Z M 691.1 1950.8 C 691.1 1950.6 691.4 1943.2 691.6 1934.4 C 691.9 1921.7 691.7 1918.0 690.7 1917.1 C 689.7 1916.4 675.3 1915.9 642.4 1915.8 L 595.5 1915.5 L 595.5 1892.0 L 595.5 1868.5 L 636.5 1868.0 L 677.5 1867.5 L 677.5 1851.5 L 677.5 1835.5 L 636.5 1835.0 C 614.0 1834.7 595.4 1834.3 595.2 1834.2 C 594.6 1833.6 595.1 1788.0 595.8 1788.0 C 596.2 1787.9 617.5 1787.8 643.2 1787.6 C 669.0 1787.5 690.2 1787.1 690.4 1786.9 C 690.7 1786.6 691.1 1779.4 691.4 1770.8 C 691.8 1758.6 691.6 1754.9 690.6 1754.1 C 689.7 1753.3 670.1 1753.1 623.4 1753.2 L 557.5 1753.5 L 557.2 1851.0 C 557.1 1904.6 557.2 1949.1 557.5 1949.8 C 557.8 1950.7 572.2 1951.0 624.5 1951.0 C 661.1 1951.0 691.0 1950.9 691.1 1950.8 Z M 1121.3 1949.7 C 1121.6 1949.0 1121.8 1935.6 1121.9 1920.1 C 1121.9 1898.7 1122.3 1891.4 1123.2 1890.1 C 1123.9 1889.2 1129.2 1883.4 1134.9 1877.3 C 1142.8 1868.8 1145.6 1866.3 1146.6 1867.1 C 1147.3 1867.7 1150.7 1872.3 1154.1 1877.3 C 1157.6 1882.4 1164.5 1891.9 1169.5 1898.6 C 1174.4 1905.3 1183.4 1917.4 1189.4 1925.6 C 1195.4 1933.8 1202.1 1942.9 1204.2 1945.8 L 1208.1 1951.0 L 1230.5 1951.0 C 1242.9 1951.0 1253.0 1950.7 1253.0 1950.2 C 1253.0 1949.0 1252.1 1947.8 1213.0 1895.5 C 1170.1 1838.0 1171.8 1840.4 1172.2 1838.6 C 1172.5 1837.1 1185.1 1823.2 1204.5 1803.0 C 1236.3 1769.8 1250.0 1755.2 1250.0 1754.1 C 1250.0 1753.3 1243.3 1753.0 1226.6 1753.0 L 1203.2 1753.0 L 1194.2 1762.8 C 1189.3 1768.1 1182.6 1775.5 1179.4 1779.2 C 1171.8 1787.7 1145.0 1818.3 1132.7 1832.4 C 1127.5 1838.3 1122.9 1843.2 1122.6 1843.1 C 1122.2 1843.0 1121.9 1823.2 1121.8 1799.0 C 1121.8 1764.9 1121.5 1754.8 1120.5 1754.0 C 1119.7 1753.3 1112.9 1753.1 1101.9 1753.2 L 1084.5 1753.5 L 1084.2 1851.0 C 1084.1 1904.6 1084.2 1949.1 1084.5 1949.8 C 1085.2 1951.6 1120.6 1951.5 1121.3 1949.7 Z M 1500.8 1933.8 C 1500.9 1924.5 1500.9 1916.9 1500.8 1916.9 C 1500.6 1916.8 1480.2 1916.6 1455.5 1916.4 C 1430.8 1916.3 1410.2 1916.1 1409.8 1916.1 C 1409.3 1916.0 1408.9 1879.4 1408.8 1834.8 L 1408.5 1753.5 L 1391.2 1753.3 C 1381.6 1753.2 1373.2 1753.4 1372.4 1753.7 C 1371.2 1754.1 1371.0 1768.6 1371.0 1851.9 C 1371.0 1905.7 1371.3 1950.0 1371.7 1950.3 C 1372.0 1950.7 1401.2 1950.9 1436.4 1950.8 L 1500.5 1950.5 L 1500.8 1933.8 Z M 1748.5 1933.5 L 1748.5 1916.5 L 1701.2 1916.2 L 1654.0 1916.0 L 1654.2 1892.2 L 1654.5 1868.5 L 1694.8 1868.2 L 1735.0 1868.0 L 1735.0 1854.1 C 1735.0 1846.4 1735.2 1839.6 1735.5 1838.8 C 1736.9 1835.1 1735.5 1834.9 1694.4 1834.7 L 1654.5 1834.5 L 1654.2 1811.2 L 1654.0 1788.0 L 1697.2 1787.8 C 1721.0 1787.7 1742.1 1787.6 1744.0 1787.6 C 1747.3 1787.5 1747.5 1787.3 1748.1 1783.5 C 1748.5 1781.3 1748.8 1774.1 1748.9 1767.4 C 1749.1 1758.1 1748.8 1755.0 1747.7 1754.2 C 1746.6 1753.3 1729.6 1753.1 1681.4 1753.2 L 1616.5 1753.5 L 1616.2 1851.0 C 1616.1 1904.6 1616.2 1949.1 1616.5 1949.8 C 1616.8 1950.8 1630.6 1951.0 1682.7 1950.8 L 1748.5 1950.5 L 1748.5 1933.5 Z M 297.0 1916.2 C 296.4 1916.0 296.0 1893.0 296.0 1851.9 L 296.0 1788.0 L 318.8 1788.0 C 338.3 1788.0 342.8 1788.3 349.4 1790.0 C 375.4 1796.6 391.1 1815.4 394.2 1843.7 C 395.8 1858.5 393.6 1871.5 387.2 1885.0 C 381.8 1896.3 365.4 1909.7 351.5 1914.1 C 347.9 1915.2 299.7 1917.1 297.0 1916.2 Z"/>
</svg>